/* XPM */
static char *fd4a9a6b3dd14474a21fdd4465a2784373xe0CHrW1AByrAG[] = {
/* columns rows colors chars-per-pixel */
"50 50 73 1 ",
"  c black",
". c #040403",
"X c #0F0202",
"o c #0F0404",
"O c #0F0E0B",
"+ c #1E1D16",
"@ c #3B0709",
"# c #2D2B21",
"$ c #3C392C",
"% c #5A5642",
"& c gray50",
"* c #C1171D",
"= c #C71C21",
"- c #EC1C24",
"; c #ED1C24",
": c #ED1C25",
"> c #EC1D25",
", c #EE1C24",
"< c #EE1D24",
"1 c #D92F35",
"2 c #D2353B",
"3 c #ED2126",
"4 c #E6222A",
"5 c #E6232A",
"6 c #EC272A",
"7 c #EE262A",
"8 c #ED282B",
"9 c #ED282D",
"0 c #E52F36",
"q c #EE2F31",
"w c #EC3431",
"e c #EC3534",
"r c #ED3636",
"t c #ED3933",
"y c #EC3F36",
"u c #ED3C3B",
"i c #ED4037",
"p c #EE413C",
"a c #EE423E",
"s c #EC4B3D",
"d c #E63C42",
"f c #C44247",
"g c #ED4C42",
"h c #EE4E47",
"j c #EE6859",
"k c #EE6E5D",
"l c #22B14C",
"z c #2FB452",
"x c #49BB5F",
"c c #56BE65",
"v c #EE866E",
"b c #EE997C",
"n c #E7D687",
"m c #E7D688",
"M c #E7D789",
"N c #E8D78A",
"B c #E8D78B",
"V c #E8D88C",
"C c #E9DA91",
"Z c #EADB96",
"A c #EBDD9C",
"S c #EBDD9D",
"D c #ECDE9F",
"F c #ECDFA0",
"G c #ECDFA1",
"H c #EDE0A4",
"J c #EDE0A5",
"K c #EDE1A9",
"L c #EEE2AA",
"P c #EFE4B0",
"I c #FBFBFB",
"U c #FEFDFA",
"Y c #FEFEFC",
/* pixels */
"                                                  ",
" PPPPPPPPPPPPPPPPPPPPPPPPPPPPPPPPPPPPPPPPPPPPPPPP ",
" PPPPPPPPPPPPPPPPPPPPKDDKPPPPPPPPPPPPKPKPPPPPPPPP ",
" PPPPPPPPPPPPPPPPPPPHDAADDKPPPPPPPPHGDHKPPPPPPPPP ",
" PPPPPPPPPPPPPPPPPGDDDAAAADPPPPPPKGAAASSKPPPPPHCG ",
" PPKPPPPPPPPPPPPKDDDAAADKDHPPPPPKSDDAAASGPPPPPmnm ",
" KDDKPPPPPPPP           PPPP            DPPPHNmnm ",
" HSSSPPPPPPP  ,,>7>:ph> PPPP a:>,:>,:>>   PHNNnnm ",
" KDDZMVHLPP% >7,,:,::>9 PPPP >h:>:,,,,-g>  BnnnnS ",
" PAAMnmmPPP  ::aa,h>    PPPP     >,7,->77h  nnDPK ",
" PHAnnmDPP  ,-,-,,   PPPPPPPLADA   :-p,-9:q nZPPP ",
" PLHCnZPPP >=h-,,, PPPPPPPPPPDAADD >,--,aa> PLPPP ",
" PPPPPPPPP >::,--, PPPPPPPPPPHDSDS  ,,,,:,, PPPPP ",
" PPPPPPPPP :::-,,-   PPPPPPPP       ,,,:::> PPPPP ",
" PPPPPPPP  :,,,-9:>:    PPPP  >::,he9,:9w:: PPPPP ",
" PPPPPPPP >>,,,,:,,h:>9 PPPP :h::-hh,-::>:> PPPPP ",
" PPPPPPP  j,-,,,,>:,99  PPPP    >:yg,:,,,h: P%PPP ",
" PPPPPPP ,-,h-,,,      PPPPPPPP   >s:::,,79 #OPPP ",
" PPPPPPP >,,h,>:  PPPPPPPPPPPPPPN  >:>,>w,a OPPPP ",
" PPPPPKK ::>     PPP%$ .$PPP#  #nn      ,:> PPPPP ",
" PPPKKHA :,, PDAPSGK YI#PPPP UY nnnnPPP --: PPPPP ",
" PPKDADS >,, PSAAS   Y@      @Y   nnPPP -,>+PPPPP ",
" PPHAAAS -7> PSDAS >o  X>:,,X  X:  DPPP ,-, PPPPP ",
" PPHAAAS ,,>       e>h>:,,,:>aa>>7      -,- PPPPP ",
" PPPPPPK >a,,,,,pa-a3-,-,,-,-:,-9h,,,,,he<  PPPPP ",
" PPPPPPP  9,,-,:-,9,:,-,-,,-,--,:aw,,,:>:7 PPPPPP ",
" PPPPPPPP  9->:>9,,-::-a,::,,-,--<--,>:    PPPPPP ",
" PPPPPPPPP       --,-,,-a-7:-,-,,2-f    PPPPPPPPP ",
" PPPPPPPPPPPPxzl  >e,,,,7,-1,-4--4-- &&PPPPPPPPPP ",
" PPPPPclxPP       >b,,,->-,--,>0,,--   &PPPPPPPPP ",
" PPPPPPlzlx >:-,,,:7:,,-,----,,d,,::>,    PPPPPPP ",
" PPPPPPlll  ,,,,,,::,>3,-,--,-,,,,:,2:::>  PPPPPP ",
" PPPPP     >:>   >:,,,,-,-,-,,,,--,-2::,:, HHKPPP ",
" PPPP  >>  ,,  P :,,,--,-,,4,:,,,3,:>19:a, DSSHKP ",
" PPPP v>:,,,> zP >,,-,--,:-a,,--::-   ae,>     DP ",
" PPPP  v:,,,: PP ,,,,-,9--,9>---:>e P  h,7>:99 HP ",
" PPPPP        P  >,:-,,w,-w>>:-9,3a PP a9pg>ap KP ",
" PPPPPPPPPPPPP  ,>::,,,,-,i8,,-a39> PP  ,::3w: PP ",
" PPPPPPPPPP    >><>k9--93--i,,7>:a9   P   D9>  PP ",
" PKHDHPPPP  >,,:< hajw,h9,7-,wt7,,h,>  PP     PPP ",
" PDAAADG   >:,,->  >9g9ah3,6wy3i7,h:aj  PHDAGPPPP ",
" KGDAAD  >9u,,-,    d7a9-ah->,>8y:a>:>3  PPPLPPPP ",
" PPKAA  9,h,     PL .u9----,,,>    9:j::  PPPPPPP ",
" PPKAA  >,,9 PPPLHHK. -,,:,,,,9 PP  e:::>   PPPPP ",
" PPPGAA      PPPPDSHS           PnP  :g*:>h PPPPP ",
" PPPHDGPPPPPPPPPLHSSSSGPKPPPPPPNnnPP e7::h  PPPPP ",
" PPPPPPPPPPPPPPPPPPPKPPPPPPPPPPHnDPP       PPPPPP ",
" PPPPPPPPPPPPPPPPPPPPPPPPPPPPPPPKPPPPPPPPPPPPPPPP ",
" PPPPPPPPPPPPPPPPPPPPPPPPPPPPPPPPPPPPPPPPPPPPPPPP ",
"                                                  "
};
