/* XPM */
static char *_92f307ec5d549fcb6092fc2f826e090QfAJA6wzMhQC1pqd[] = {
/* columns rows colors chars-per-pixel */
"47 50 195 2 ",
"   c #89591B",
".  c #9D641D",
"X  c #8F5F21",
"o  c #936324",
"O  c #966628",
"+  c #96692C",
"@  c #9A6A2B",
"#  c #9B6A29",
"$  c #9D722E",
"%  c #9E6E31",
"&  c #9E7233",
"*  c #A06720",
"=  c #A46B25",
"-  c #AC732C",
";  c #A06F35",
":  c #A37334",
">  c #AC7935",
",  c #A47539",
"<  c #A6793B",
"1  c #AB7B3C",
"2  c #B37C35",
"3  c #B27D3D",
"4  c #AE7E41",
"5  c #AC7F48",
"6  c #AD823E",
"7  c #B0803E",
"8  c #B9833C",
"9  c #AD8143",
"0  c #B38344",
"q  c #BB8542",
"w  c #B58A45",
"e  c #BB8A45",
"r  c #B58649",
"t  c #B68A4B",
"y  c #BA8B4C",
"u  c #BC914E",
"i  c #BD8E51",
"p  c #BB8B5A",
"a  c #BD9153",
"s  c #BF9259",
"d  c #B9A27F",
"f  c #B8A270",
"g  c #C38C44",
"h  c #C08D4B",
"j  c #C2934D",
"k  c #CB924D",
"l  c #C28D52",
"z  c #C48C59",
"x  c #C39455",
"c  c #CC9453",
"v  c #C49955",
"b  c #CA9956",
"n  c #C49559",
"m  c #C5995A",
"M  c #CB9B5C",
"N  c #D29E5D",
"B  c #D09C50",
"V  c #CDA25F",
"C  c #D3A15E",
"Z  c #DDA45D",
"A  c #CC9E61",
"S  c #CEA263",
"D  c #CFA867",
"F  c #D2A364",
"G  c #DEA764",
"H  c #D4A965",
"J  c #DBA967",
"K  c #D4A669",
"L  c #D5A96B",
"P  c #DAAB6C",
"I  c #DBB06C",
"U  c #DCAE71",
"Y  c #D6AC70",
"T  c #DDB173",
"R  c #C7B670",
"E  c #E5AD6A",
"W  c #E0AC61",
"Q  c #E3B26F",
"!  c #E2B375",
"~  c #E9B473",
"^  c #E5BA76",
"/  c #EABA76",
"(  c #E4B679",
")  c #E5B97B",
"_  c #EABC7D",
"`  c #F3BD7C",
"'  c #BED17F",
"]  c #B7CA78",
"[  c #D2C275",
"{  c #E7C07F",
"}  c #ECC17E",
"|  c #F2C27E",
" . c #F8CD7E",
".. c #C7AF8D",
"X. c #C7B18A",
"o. c #D1BC8D",
"O. c #C7B091",
"+. c #CEB694",
"@. c #D6BC9D",
"#. c #E7BC81",
"$. c #EBBF80",
"%. c #ECBE81",
"&. c #EBBB8A",
"*. c #D9BFA1",
"=. c #DAC78D",
"-. c #CACF95",
";. c #D9C19F",
":. c #D0D794",
">. c #EDC182",
",. c #EFC384",
"<. c #EFC287",
"1. c #EDC283",
"2. c #EEC58A",
"3. c #F1C183",
"4. c #F0C080",
"5. c #F2C284",
"6. c #F1C586",
"7. c #F5C587",
"8. c #F6C686",
"9. c #F2C384",
"0. c #F9C584",
"q. c #F3C884",
"w. c #F4C985",
"e. c #F9CB86",
"r. c #F3C68A",
"t. c #F6C688",
"y. c #F4C688",
"u. c #F4C689",
"i. c #F5C98A",
"p. c #F7CA8C",
"a. c #F5CA8B",
"s. c #F9C98B",
"d. c #FBCB8D",
"f. c #F9CD8E",
"g. c #FECE8E",
"h. c #FACC8D",
"j. c #FCD18E",
"k. c #F7CE90",
"l. c #FECE90",
"z. c #FDCE90",
"x. c #F9D291",
"c. c #FED192",
"v. c #FFD395",
"b. c #FFD596",
"n. c #FFD495",
"m. c #FED294",
"M. c #FFD894",
"N. c #FFD699",
"B. c #FFDA9A",
"V. c #FFDA9C",
"C. c #CEE096",
"Z. c #DAE79D",
"A. c #FFE092",
"S. c #FFE09F",
"D. c #DDC5A3",
"F. c #DEC8A1",
"G. c #D7DAAD",
"H. c #E0C9A5",
"J. c #E5CEA9",
"K. c #E8CDAF",
"L. c #E1C6A8",
"P. c #E9D2AD",
"I. c #FFDFA2",
"U. c #ECD5B2",
"Y. c #E9D9B7",
"T. c #F1DAB5",
"R. c #FFE1A3",
"E. c #FFE5AA",
"W. c #CDCFC4",
"Q. c #D5D6CE",
"!. c #DCDCDC",
"~. c #D2D3D8",
"^. c #E6DFCF",
"/. c #E2DDD6",
"(. c #DAE6C5",
"). c #E6E7C7",
"_. c #E8E5CD",
"`. c #E5E3D4",
"'. c #E7EAD5",
"]. c #E6E6D8",
"[. c #F1EADA",
"{. c #D3CEE4",
"}. c gray92",
"|. c #EDEEE6",
" X c #F3ECE2",
".X c #F0F4E3",
"XX c #FBF4E3",
"oX c #FDFAE6",
"OX c #FFF7EC",
"+X c #FFFEED",
"@X c #F3FFE2",
"#X c #EAE8F6",
"$X c #F3F3F3",
"%X c #FEFDF3",
"&X c #FFFFFE",
/* pixels */
"! ) T T L T ,.p.>.p.b.,.x.,.H >.x.x.x.k.a.t.6.t._ d.7.P K U A 4 T q.T ,.q.>.p.U A #.( U t.l.&.",
"6.r.>.T L T _ ,._ T T T p.6.v s D T T ^ $.t._ K K ( %._ 0.d.( b 6 u u I ^ ^ r.( #.l.d.%.s.7._ ",
"_ _ T L D T >.6._ _ _ S s 9 < m D m t r r a S J 5.t.s.l.l.d.E i ^ q.1.,.<.#.<.T F K P ~ s.s.t.",
"T ^ T T P ) q.p.h.U D m V S a V V s S T K r 0 x ( ~ ( 7.t.%.U S ^ { _ ^ T #.r.a.M y r A Q U F ",
"t a a y y s m v K a F _ k.n.>.1.[ 1.6.N.n._ F x 0 r y z l r 0 r V V V u 4 5 & & 4 ; , r h 4 3 ",
"D L T T T 1.>._ D m _ k.1.>.>.c.x.V.a.^ 1.V._ r 0 y c M x r 4 0 e w V a p A z A K J %.0.P K _ ",
"Y ^ _ _ 6.x.b.x.I.S S ! _ a.$.( T 1.1._ ) ! x # K ! %.t.t.%.7.%.q.{ a.T T >.P U %.%.l.%.z l K ",
") _ _ ) _ r.a.,.^ x T i.2.h.l.B.S.a.1.[ s + @ n 7.s.t._ ! ! J A V u m t s T ( %.t.( ( P b P 7.",
"_ _ ! J F J ~ t.T x K _ %.( J Q ( ( ~ P l 1 l U ! P U ! ( t.m.l.l.t.%.! b.A r n b M b 1 H g.! ",
">.h.g._ M e y M 1 @ 1 , # , z _ %.l.b.( x i ! l.l.( K M y x F F K _ d._ ! l A %.~ U M > 0 F J ",
"$ # o O : 0 j c F K _ Q x y y K 4 l 4 @ O < y l y 4 r y 1 , ; X ; > 0 n x Q t.B.%.8.c.8.! y o ",
"8.! M C ! _ _ ! M P d.l.l.( y r F A n n A Q U G F l l x M K ! Q n y 4 M y 7.l.( e.7.7.7.0./ P ",
"! ` j.j.5.~ ! ! 7.7.l.d.b.l.K ~ ! ! _ %._ ! ( %.%.S b K ! 7.l.s.t.d.m.l.z _ m.%.F J H M x b F ",
"y b P ~ ( _ _ 3.( Q P M A n y _ m.7.7.d.d.%.%.s.&.P Q t.l.l.7.( 1.t.b.%.0 M ( H 7.d._ M 1 0 P ",
"n.9.! P Q ! J C A A K K U x 1 _ %.~ ! %.l.l.%.( / M n F K U ( ( _ J K y 1 0 l ;   > x / J M | ",
"8.h.c.c.d.8.8.i.l.s.d.d.l.z   y 4 K %.%.%.%.%._ ~ U %.V.N.l.d.t.b r l 3 x A _ H P l , b y 0 ~ ",
"z A n z U ! K ( T ,.6.L a x F U N 1 4 l 4 4 N U l n A Y U K A A x _ p.>.T T L L ! ~ 5.! 1 : y ",
"5 5 @ , z z 4 5 s a t t S >.x.d._ d.K ; K A l r K Y T T Y K A p 6.N.p._ 1.p.x.B.c.w.B.B.J 0 0 ",
"%.d.l.d.( M M %.^ S a M ) c.k.1.t.d.P O ! Q ( E K ( <.a.k.k.2.T L >.>.! 1.q.,.,.` P ! ! M A _ ",
"d.%._ %.t.( ! s.T L T >.p.p.a.a.I.U Q P ( P t.&.<.a.k.a.l.r.Y r D ,.b.h.p.,.) >.s.3.H 1 > J 5.",
"J z l N M m A P Y I ^ >.^ U U ) Q i l %.! ~ U / I L L T <.k.) m { i.,.) >.>.r.k.F H y 1 x _ e.",
"A A P F w e E i.N.h.>.T K D D F ( s.r A ( I.! d.p.T M v S A u 1 m s 9 w F ) ) <._ J 0 e M M y ",
"b e 0 8 7 C 9.9.6.,.T L U ,.d.t.7.B.y O 4 K 4 y u 6 6 w v v v v s v y y S L K T P x 1 7 N m x ",
"~ / _ b o : J ! T ^ ( L U r.m.l.t.%.( F y A P y u u V } } I P ^ a.b.,.F a 9 t K ` 8.P M J J M ",
"m.( t.I.b   @ 4 5 4 1 4 y l l x 0 4 4 : r ( t.d.j.p._ T L T >.q.e.e.f.T T ,.<.b.>.c.a.i.N.a.$.",
"d.l.d._ r < P ( ( ~ ( ` ( K A A ! M M l i b x U ^ { r.6.,.,.#._ I { ,.V m >.r.2.6.p._ L U ) 1.",
"U %.A 1 ; z %.%.~ U P P P E %.l.! l e y Q d.( K T T P L H S m m j H L : < ) 1.( U ^ i.a.6.h.a.",
"! ! 4 : b %.l.~ t.t.t.t.( K M M K ( _ l x &.m.N.V.n.i.6.6.6.a.p.M.j.,.a m V.R.b.I.a.x.n.r.6.x.",
"_ M ; i _ %.` U M M F ( s.l.B.I.l.d.~ : o y b F S V S T >.,.,.2.{ H v < t U K S M 9 y L P U _ ",
"! z 4 P %.P Q ! F i , , 4 y A P 3.x 4 r A P i r 9 & + & 9 9 9 t v w y u A T D L a < a T >.) ^ ",
"0 ; % i y 1 y , 4 4 0 r r , O O r 4 P l.B.l._ c.p.T S S L L L T V v P T &.a.&.6.k.^ a < 9 w 9 ",
"! J E %.( %.%.0 M G ! %.%.! Q ! P S ! ! _ 8.U P L M F >.N.c.q.,.j.j.R.m.a.k.2.m.r.b.T u S ) T ",
"3.} ^ Q ^ } T V T ^ k.a.#.r.m.p.N.^ T 6.x.h.6.>.H < $ T { H q.} _ H b S _ 0.%.` P M O F s.P _ ",
"h.j.e.j.j.e.^ H L I ^ _ ^ ) { T ^ L L #.) U S a t u 6 6 6 u ^ ^ s._ F l r r y r l r o A l.%.l.",
"_ >.} } { _ L n _ >.>.,.>.! L F a < 4 y y a m m T m I } _ v t ) %.l.l.7.( ( ( ~ b.5.4 y K A ! ",
"T T T I T T P S 1.1.>.,.>.K m D p.#.) 1.^ ( 1.,.L ^ n.q.h.>.< & x P _ %.%.l.m.s.P U r 1 4 1 l ",
", 6 0 r y n n i t i a m m < < m P L >.a._ ! T L ,.p.V.&.h.j.x m b z r 3 r b M l X M Q _ ( A x ",
"9 a S J T ( ( Y _ 1.>.6.6.S m i.D F ^ 1.) ) %.) T m K T U t p k.5.P n n A S z 4 n %.V.V.m.t.` ",
"t A T o.#.#.#.#.p.x.1.h.x.m t ) h.>.>.) L T ( T K <.m.r.D A <.k.5.Q P _ t._ K M %.7.%.( %.t.7.",
"L T #.#.#.#.5.5.a.6.) i.m.m 1 I >.>.i.x.6.p.z.1.V.r.2.E.#.5 Y 5.%.P F ! ( K G U l.d.t.7.l.7.n ",
"J Q _ ` e.9.Q b P ~ 0.%.N 3 > q 3 4 0 4 2 3 y c J W W B g y l z C e C _ ! | n.e.K F D D L D t ",
"< A T Y U &.#.F r n i < y ! #.P n A F S M z A S u u w u H #.r.&.T t F j.i._ ! A Y T T >.2.2.2.",
"9 5 r z y , O , i A Y #.r.6.&.&.m K ( %.&.$.1.r.B.j.q.} e.N.x.2.p.x M s.c.i.i.%.Y 1.k.p.p.a.2.",
"l 1 r J _ ! ~ s.h.>.,.j.h._ } h.y m K ( _ } >.w.} q.e.| } / / Q C > : e h j N M M J _ | / ~ ! ",
"g Z Z k c E ` E E P N y C } ~ x > 3 4 4 3 1 1 1 # > 8 e e e 8 6 8 g c k q 8 2 - - 2 2 - # . . ",
"e.A.M.P r r p p p s a t n A n r #.#.( U F A n n T T T ( &._ F w n ( z.1._ _ ( K % % ; , y F ( ",
"[ R R =.o.d O.Y.T.F.;.@...d +.T.U.U.U.L.L.D.D.D.D.D.D.D.U.J.o.f X.F.J.F.P.T.P.P.K.K.L.@.@.@.D.",
"Z.:.-.G._.]././.^.oX+X+X%X+X%X[.+X+X+X+X+X+X+X+XoX%X%X%XoXXX'.Y.+X+XoX+X%XoX_.^./. X%X%X%X%X%X",
"(.] ' (.~.W.Q.{.~.!.}.&X&X&X&X&X&X&X&X&X&X&X&X&X&X&X&X&X&X&X&X&X&X&X&X&X&X%X.X'.$X$X$X}.$X$X&X",
"@XC.Z..X}.].}.#X}.}.$X$X$X$X$X&X&X&X&X&X&X&X&X&X&X&X&X&X&X&X&X&X&X&X&X&X&X%X.X'.}.$X$X$X$X$X&X"
};
