/* XPM */
static char *_591863275d44b99c1eaeb6320b8367fs5RdVYkcMykzan1T[] = {
/* columns rows colors chars-per-pixel */
"32 32 6 1 ",
"  c #22303E",
". c black",
"X c #663931",
"o c #D18C47",
"O c #D9A066",
"+ c #DDD540",
/* pixels */
"                                ",
"                                ",
"                                ",
"                                ",
"                                ",
"                                ",
"                                ",
"                                ",
"                                ",
"                                ",
"                                ",
"                                ",
"                ...             ",
"               .XoO.            ",
"              .ooX.             ",
"            ..+.OOO..           ",
"           .+..oOOo.+.          ",
"          .+.+..oo+..           ",
"           ........             ",
"                                ",
"                                ",
"                                ",
"                                ",
"                                ",
"                                ",
"                                ",
"                                ",
"                                ",
"                                ",
"                                ",
"                                ",
"                                "
};
